<svg width="100%" height="100%" viewBox="0 0 6051 884" version="1.1" xmlns="http://www.w3.org/2000/svg" xmlns:xlink="http://www.w3.org/1999/xlink" xml:space="preserve" xmlns:serif="http://www.serif.com/" style="fill:#ffffff;fill-rule:evenodd;clip-rule:evenodd;stroke-linejoin:round;stroke-miterlimit:2;">
    <g transform="matrix(1.38,0,0,1.38,-145.34,-311.22)">
        <g transform="matrix(1.08,0,0,1.08,45.217391,-100.362319)">
            <g transform="matrix(0.82,0,0,0.82,6.88,6.06)">
                <g transform="matrix(0.1,0,0,-0.1,0,1234)">
                    <path d="M7227,8523C7223,8519 7191,8512 7157,8508C6596,8436 5875,8090 5280,7606C5181,7526 5187,7530 5096,7458C5052,7423 4994,7377 4966,7356C4938,7334 4908,7310 4900,7301C4892,7292 4865,7269 4840,7250C4816,7231 4784,7205 4770,7193C4707,7139 4662,7102 4625,7075C4603,7059 4583,7043 4580,7040C4577,7037 4555,7019 4530,7000C4505,6981 4483,6963 4480,6960C4465,6944 4372,6874 4280,6810C4222,6770 4153,6720 4125,6700C4078,6665 3910,6562 3755,6473C3510,6332 3212,6207 2960,6139C2935,6133 2902,6124 2885,6119C2843,6107 2696,6074 2630,6061C2522,6040 2313,6020 2105,6012C1888,6003 1888,5992 2100,5902C2355,5794 2622,5748 2990,5748C3278,5747 3516,5780 3790,5859C3809,5864 3836,5872 3850,5876C3881,5884 4078,5955 4225,6010C4333,6051 4623,6196 4749,6271C4783,6293 4814,6310 4816,6310C4832,6310 5309,6618 5454,6723C5701,6900 5787,6956 5798,6946C5809,6934 5412,6553 5277,6447C5248,6424 5213,6395 5198,6382C5121,6313 4703,6010 4686,6010C4683,6010 4656,5994 4626,5975C4596,5956 4569,5940 4566,5940C4564,5940 4529,5922 4489,5899C4258,5768 3909,5614 3680,5541C3661,5535 3596,5514 3536,5495C3476,5476 3379,5449 3321,5435C3263,5421 3199,5405 3180,5400C2729,5285 1995,5259 1475,5339C1211,5379 1019,5427 820,5500C690,5548 630,5560 630,5538C630,5523 750,5395 805,5350C1160,5061 1556,4862 1945,4776C1962,4772 1995,4764 2020,4759C2412,4672 2880,4665 3290,4739C3320,4745 3368,4753 3395,4758C3452,4768 3616,4805 3675,4822C3906,4885 4383,5079 4584,5192C4634,5220 4705,5260 4742,5280C4779,5301 4822,5327 4839,5339C4855,5351 4870,5360 4873,5360C4884,5360 5072,5478 5159,5539C5212,5577 5287,5629 5325,5655C5414,5717 5647,5892 5680,5922C5705,5945 5759,5988 5809,6025C5845,6051 5924,6116 5975,6161C6014,6196 6051,6228 6100,6270C6134,6299 6291,6444 6365,6514C6398,6546 6452,6592 6485,6618C6518,6644 6554,6674 6566,6685C6703,6818 7117,7142 7282,7244C7316,7266 7388,7311 7440,7345C7561,7423 7626,7462 7670,7482C7689,7491 7759,7524 7825,7555C8051,7662 8219,7726 8370,7760C8516,7794 8561,7802 8685,7815C8900,7838 9049,7832 9234,7794C9376,7765 9393,7780 9303,7857C9272,7883 9228,7922 9205,7944C9183,7965 9149,7993 9130,8006C9111,8019 9077,8043 9055,8059C9012,8091 8988,8106 8835,8195C8645,8306 8436,8389 8170,8460C8121,8473 8045,8488 7910,8511C7837,8524 7238,8535 7227,8523Z" style="fill-rule:nonzero;"/>
                    <path d="M9397,7384C9393,7380 9353,7373 9308,7369C9225,7360 9159,7350 9085,7332C9063,7326 9029,7319 9010,7315C8763,7265 8360,7118 8105,6986C7811,6833 7660,6741 7365,6536C7284,6479 6939,6211 6920,6190C6917,6187 6890,6165 6860,6140C6830,6115 6800,6091 6794,6085C6788,6080 6754,6050 6720,6020C6685,5990 6633,5945 6605,5920C6577,5895 6532,5857 6505,5835C6478,5813 6442,5782 6425,5765C6408,5749 6370,5715 6340,5690C6310,5665 6274,5636 6261,5625C6247,5614 6220,5591 6201,5575C6181,5558 6149,5532 6128,5517C6108,5502 6086,5485 6078,5478C6055,5456 5968,5387 5920,5352C5801,5264 5543,5083 5530,5077C5522,5073 5475,5045 5425,5014C5075,4796 4814,4676 4429,4555C4261,4502 4269,4504 4063,4467C3871,4432 3870,4410 4060,4369C4256,4326 4358,4317 4660,4317C5012,4317 5119,4327 5425,4389C5467,4398 5637,4440 5745,4470C5925,4518 6139,4605 6410,4738C6682,4871 6909,5006 7234,5227C7289,5265 7379,5325 7434,5362C7490,5399 7566,5452 7604,5479C7670,5528 7690,5534 7690,5506C7690,5493 7559,5363 7435,5255C7398,5222 7358,5186 7346,5175C7322,5152 7157,5023 7123,5000C7111,4992 7046,4945 6978,4895C6869,4816 6695,4700 6684,4700C6682,4700 6658,4685 6632,4667C6484,4563 6085,4370 5800,4263C5584,4182 5575,4179 5310,4108C5269,4098 5219,4084 5200,4079C5181,4074 5143,4065 5115,4060C5088,4055 5043,4046 5015,4040C4856,4007 4654,3978 4445,3959C4291,3944 3612,3944 3500,3959C3453,3965 3379,3974 3335,3979C3133,4004 2978,4041 2711,4130C2555,4182 2517,4187 2512,4160C2508,4134 2642,3981 2750,3890C2786,3860 2817,3832 2820,3829C2837,3809 2996,3690 3051,3656C3087,3633 3125,3609 3136,3603C3175,3578 3457,3442 3513,3422C3652,3369 3679,3360 3745,3342C3911,3296 4027,3273 4230,3248C4350,3233 4813,3233 4945,3248C5111,3266 5277,3291 5355,3309C5528,3350 5593,3368 5723,3412C6078,3530 6283,3623 6685,3850C6750,3887 6888,3974 6945,4014C6978,4038 7057,4092 7120,4135C7183,4178 7246,4222 7260,4232C7521,4431 7665,4547 7840,4700C7854,4712 7885,4739 7910,4759C7968,4807 8028,4861 8110,4940C8147,4976 8217,5041 8265,5085C8314,5129 8417,5228 8495,5305C8695,5504 8842,5643 8950,5735C9002,5779 9054,5824 9066,5835C9077,5846 9108,5873 9135,5895C9162,5917 9197,5947 9214,5961C9231,5975 9283,6013 9330,6045C9377,6077 9433,6118 9455,6135C9508,6178 9606,6243 9672,6280C9768,6334 10056,6479 10111,6501C10312,6581 10460,6621 10670,6652C10770,6667 11205,6667 11300,6652C11341,6645 11400,6636 11430,6631C11460,6626 11509,6617 11538,6611C11591,6600 11630,6608 11630,6629C11630,6643 11502,6768 11441,6814C11243,6965 11157,7021 11010,7097C10755,7229 10457,7322 10135,7372C10056,7384 9408,7394 9397,7384Z" style="fill-rule:nonzero;"/>
                </g>
            </g>
        </g>
    </g>
    <g transform="matrix(1,0,0,1,-146,-69)">
        <g transform="matrix(0.978489,0,0,-0.978489,1483.5,765.429)">
            <path d="M138,0C120,0 106.167,4.833 96.5,14.5C86.833,24.167 82,38 82,56L82,649C82,667 86.833,680.833 96.5,690.5C106.167,700.167 120,705 138,705L376,705C424.667,705 466.167,697.667 500.5,683C534.833,668.333 561.167,647.333 579.5,620C597.833,592.667 607,559.667 607,521C607,478.333 594.333,442.333 569,413C543.667,383.667 509.333,364 466,354L466,369C515.333,362.333 554,343.833 582,313.5C610,283.167 624,243.667 624,195C624,132.333 603.333,84.167 562,50.5C520.667,16.833 462.667,0 388,0L138,0ZM182,80L376,80C426,80 463,89.833 487,109.5C511,129.167 523,159 523,199C523,239 511,268.667 487,288C463,307.333 426,317 376,317L182,317L182,80ZM182,397L360,397C408,397 444.333,406.667 469,426C493.667,445.333 506,473.667 506,511C506,548.333 493.667,576.667 469,596C444.333,615.333 408,625 360,625L182,625L182,397Z" style="fill-rule:nonzero;"/>
        </g>
        <g transform="matrix(0.978489,0,0,-0.978489,2092.12,765.429)">
            <path d="M122,-7C105.333,-7 92.667,-2.5 84,6.5C75.333,15.5 71,28 71,44L71,444C71,460.667 75.333,473.333 84,482C92.667,490.667 104.667,495 120,495C136,495 148.167,490.667 156.5,482C164.833,473.333 169,460.667 169,444L169,371L159,371C169.667,411 189.333,441.333 218,462C246.667,482.667 283.333,494.667 328,498C340,498.667 349.5,495.667 356.5,489C363.5,482.333 367.333,472 368,458C369.333,444 366.333,432.833 359,424.5C351.667,416.167 340.333,411.333 325,410L306,408C262.667,404 229.667,390.333 207,367C184.333,343.667 173,311.667 173,271L173,44C173,28 168.833,15.5 160.5,6.5C152.167,-2.5 139.333,-7 122,-7Z" style="fill-rule:nonzero;"/>
        </g>
        <g transform="matrix(0.978489,0,0,-0.978489,2398.387,765.429)">
            <path d="M300,-9C246.667,-9 200.833,1.167 162.5,21.5C124.167,41.833 94.5,70.833 73.5,108.5C52.5,146.167 42,191 42,243C42,293.667 52.333,338 73,376C93.667,414 122,443.667 158,465C194,486.333 235,497 281,497C315,497 345.333,491.5 372,480.5C398.667,469.5 421.5,453.5 440.5,432.5C459.5,411.5 473.833,386 483.5,356C493.167,326 498,292.333 498,255C498,243.667 494.667,235.167 488,229.5C481.333,223.833 471.333,221 458,221L122,221L122,283L430,283L413,269C413,302.333 408.167,330.667 398.5,354C388.833,377.333 374.5,395.167 355.5,407.5C336.5,419.833 313,426 285,426C253.667,426 227.167,418.667 205.5,404C183.833,389.333 167.333,369 156,343C144.667,317 139,286.667 139,252L139,246C139,187.333 152.833,143.167 180.5,113.5C208.167,83.833 248.333,69 301,69C321,69 342.167,71.667 364.5,77C386.833,82.333 408,91.333 428,104C439.333,110.667 449.5,113.667 458.5,113C467.5,112.333 474.833,109.333 480.5,104C486.167,98.667 489.667,92 491,84C492.333,76 491,67.833 487,59.5C483,51.167 476,43.667 466,37C443.333,21.667 417,10.167 387,2.5C357,-5.167 328,-9 300,-9Z" style="fill-rule:nonzero;"/>
        </g>
        <g transform="matrix(0.978489,0,0,-0.978489,2865.126,765.429)">
            <path d="M300,-9C246.667,-9 200.833,1.167 162.5,21.5C124.167,41.833 94.5,70.833 73.5,108.5C52.5,146.167 42,191 42,243C42,293.667 52.333,338 73,376C93.667,414 122,443.667 158,465C194,486.333 235,497 281,497C315,497 345.333,491.5 372,480.5C398.667,469.5 421.5,453.5 440.5,432.5C459.5,411.5 473.833,386 483.5,356C493.167,326 498,292.333 498,255C498,243.667 494.667,235.167 488,229.5C481.333,223.833 471.333,221 458,221L122,221L122,283L430,283L413,269C413,302.333 408.167,330.667 398.5,354C388.833,377.333 374.5,395.167 355.5,407.5C336.5,419.833 313,426 285,426C253.667,426 227.167,418.667 205.5,404C183.833,389.333 167.333,369 156,343C144.667,317 139,286.667 139,252L139,246C139,187.333 152.833,143.167 180.5,113.5C208.167,83.833 248.333,69 301,69C321,69 342.167,71.667 364.5,77C386.833,82.333 408,91.333 428,104C439.333,110.667 449.5,113.667 458.5,113C467.5,112.333 474.833,109.333 480.5,104C486.167,98.667 489.667,92 491,84C492.333,76 491,67.833 487,59.5C483,51.167 476,43.667 466,37C443.333,21.667 417,10.167 387,2.5C357,-5.167 328,-9 300,-9Z" style="fill-rule:nonzero;"/>
        </g>
        <g transform="matrix(0.978489,0,0,-0.978489,3331.865,765.429)">
            <path d="M90,0C79.333,0 70.667,2.5 64,7.5C57.333,12.5 52.833,19.167 50.5,27.5C48.167,35.833 48.167,44.833 50.5,54.5C52.833,64.167 58,73.333 66,82L338,435L338,410L84,410C71.333,410 61.667,413.5 55,420.5C48.333,427.5 45,437 45,449C45,461.667 48.333,471.333 55,478C61.667,484.667 71.333,488 84,488L386,488C398.667,488 408.833,485.333 416.5,480C424.167,474.667 429.167,468 431.5,460C433.833,452 434,443.333 432,434C430,424.667 425,415.667 417,407L141,50L141,77L408,77C434.667,77 448,64.333 448,39C448,27 444.5,17.5 437.5,10.5C430.5,3.5 420.667,0 408,0L90,0Z" style="fill-rule:nonzero;"/>
        </g>
        <g transform="matrix(0.978489,0,0,-0.978489,3731.089,765.429)">
            <path d="M300,-9C246.667,-9 200.833,1.167 162.5,21.5C124.167,41.833 94.5,70.833 73.5,108.5C52.5,146.167 42,191 42,243C42,293.667 52.333,338 73,376C93.667,414 122,443.667 158,465C194,486.333 235,497 281,497C315,497 345.333,491.5 372,480.5C398.667,469.5 421.5,453.5 440.5,432.5C459.5,411.5 473.833,386 483.5,356C493.167,326 498,292.333 498,255C498,243.667 494.667,235.167 488,229.5C481.333,223.833 471.333,221 458,221L122,221L122,283L430,283L413,269C413,302.333 408.167,330.667 398.5,354C388.833,377.333 374.5,395.167 355.5,407.5C336.5,419.833 313,426 285,426C253.667,426 227.167,418.667 205.5,404C183.833,389.333 167.333,369 156,343C144.667,317 139,286.667 139,252L139,246C139,187.333 152.833,143.167 180.5,113.5C208.167,83.833 248.333,69 301,69C321,69 342.167,71.667 364.5,77C386.833,82.333 408,91.333 428,104C439.333,110.667 449.5,113.667 458.5,113C467.5,112.333 474.833,109.333 480.5,104C486.167,98.667 489.667,92 491,84C492.333,76 491,67.833 487,59.5C483,51.167 476,43.667 466,37C443.333,21.667 417,10.167 387,2.5C357,-5.167 328,-9 300,-9Z" style="fill-rule:nonzero;"/>
        </g>
        <g transform="matrix(0.978489,0,0,-0.978489,4197.828,765.429)">
            <path d="M306,-7C289.333,-7 276.5,-2.333 267.5,7C258.5,16.333 254,29.333 254,46L254,618L42,618C28,618 17,621.833 9,629.5C1,637.167 -3,648 -3,662C-3,676 1,686.667 9,694C17,701.333 28,705 42,705L569,705C583.667,705 595,701.333 603,694C611,686.667 615,676 615,662C615,648 611,637.167 603,629.5C595,621.833 583.667,618 569,618L357,618L357,46C357,29.333 352.833,16.333 344.5,7C336.167,-2.333 323.333,-7 306,-7Z" style="fill-rule:nonzero;"/>
        </g>
        <g transform="matrix(0.978489,0,0,-0.978489,4736.975,765.429)">
            <path d="M186,-187C174,-187 164.167,-183.833 156.5,-177.5C148.833,-171.167 144.5,-162.833 143.5,-152.5C142.5,-142.167 144.333,-131 149,-119L217,34L217,-9L30,426C25.333,438 23.667,449.333 25,460C26.333,470.667 31.333,479.167 40,485.5C48.667,491.833 60.333,495 75,495C87.667,495 97.667,492 105,486C112.333,480 119,469.667 125,455L276,82L248,82L401,455C407,470.333 414,480.833 422,486.5C430,492.167 441,495 455,495C467,495 476.5,491.833 483.5,485.5C490.5,479.167 494.833,470.833 496.5,460.5C498.167,450.167 496.333,439 491,427L241,-148C234.333,-163.333 226.833,-173.667 218.5,-179C210.167,-184.333 199.333,-187 186,-187Z" style="fill-rule:nonzero;"/>
        </g>
        <g transform="matrix(0.978489,0,0,-0.978489,5187.08,765.429)">
            <path d="M121,-187C105,-187 92.667,-182.667 84,-174C75.333,-165.333 71,-152.667 71,-136L71,444C71,460.667 75.333,473.333 84,482C92.667,490.667 104.667,495 120,495C136,495 148.333,490.667 157,482C165.667,473.333 170,460.667 170,444L170,357L159,378C169.667,414 190.667,442.833 222,464.5C253.333,486.167 290.333,497 333,497C376.333,497 414.167,486.667 446.5,466C478.833,445.333 503.833,416.333 521.5,379C539.167,341.667 548,296.667 548,244C548,192.667 539.167,147.833 521.5,109.5C503.833,71.167 479,41.833 447,21.5C415,1.167 377,-9 333,-9C291,-9 254.333,1.667 223,23C191.667,44.333 170.667,72.667 160,108L172,108L172,-136C172,-152.667 167.5,-165.333 158.5,-174C149.5,-182.667 137,-187 121,-187ZM308,69C336,69 360.333,75.667 381,89C401.667,102.333 417.667,122 429,148C440.333,174 446,206 446,244C446,301.333 433.5,344.667 408.5,374C383.5,403.333 350,418 308,418C280.667,418 256.5,411.5 235.5,398.5C214.5,385.5 198.333,366 187,340C175.667,314 170,282 170,244C170,187.333 182.667,144 208,114C233.333,84 266.667,69 308,69Z" style="fill-rule:nonzero;"/>
        </g>
        <g transform="matrix(0.978489,0,0,-0.978489,5706.658,765.429)">
            <path d="M300,-9C246.667,-9 200.833,1.167 162.5,21.5C124.167,41.833 94.5,70.833 73.5,108.5C52.5,146.167 42,191 42,243C42,293.667 52.333,338 73,376C93.667,414 122,443.667 158,465C194,486.333 235,497 281,497C315,497 345.333,491.5 372,480.5C398.667,469.5 421.5,453.5 440.5,432.5C459.5,411.5 473.833,386 483.5,356C493.167,326 498,292.333 498,255C498,243.667 494.667,235.167 488,229.5C481.333,223.833 471.333,221 458,221L122,221L122,283L430,283L413,269C413,302.333 408.167,330.667 398.5,354C388.833,377.333 374.5,395.167 355.5,407.5C336.5,419.833 313,426 285,426C253.667,426 227.167,418.667 205.5,404C183.833,389.333 167.333,369 156,343C144.667,317 139,286.667 139,252L139,246C139,187.333 152.833,143.167 180.5,113.5C208.167,83.833 248.333,69 301,69C321,69 342.167,71.667 364.5,77C386.833,82.333 408,91.333 428,104C439.333,110.667 449.5,113.667 458.5,113C467.5,112.333 474.833,109.333 480.5,104C486.167,98.667 489.667,92 491,84C492.333,76 491,67.833 487,59.5C483,51.167 476,43.667 466,37C443.333,21.667 417,10.167 387,2.5C357,-5.167 328,-9 300,-9Z" style="fill-rule:nonzero;"/>
        </g>
    </g>
</svg>
