<svg xmlns="http://www.w3.org/2000/svg" viewBox="0 0 1232 1234" preserveAspectRatio="xMidYMid meet">
  <g transform="translate(0 1234) scale(0.1 -0.1)" fill="currentColor">
    <path d="M7227 8523 c-4 -4 -36 -11 -70 -15 -561 -72 -1282 -418 -1877 -902
-99 -80 -93 -76 -184 -148 -44 -35 -102 -81 -130 -102 -28 -22 -58 -46 -66
-55 -8 -9 -35 -32 -60 -51 -24 -19 -56 -45 -70 -57 -63 -54 -108 -91 -145
-118 -22 -16 -42 -32 -45 -35 -3 -3 -25 -21 -50 -40 -25 -19 -47 -37 -50 -40
-15 -16 -108 -86 -200 -150 -58 -40 -127 -90 -155 -110 -47 -35 -215 -138
-370 -227 -245 -141 -543 -266 -795 -334 -25 -6 -58 -15 -75 -20 -42 -12 -189
-45 -255 -58 -108 -21 -317 -41 -525 -49 -217 -9 -217 -20 -5 -110 255 -108
522 -154 890 -154 288 -1 526 32 800 111 19 5 46 13 60 17 31 8 228 79 375
134 108 41 398 186 524 261 34 22 65 39 67 39 16 0 493 308 638 413 247 177
333 233 344 223 11 -12 -386 -393 -521 -499 -29 -23 -64 -52 -79 -65 -77 -69
-495 -372 -512 -372 -3 0 -30 -16 -60 -35 -30 -19 -57 -35 -60 -35 -2 0 -37
-18 -77 -41 -231 -131 -580 -285 -809 -358 -19 -6 -84 -27 -144 -46 -60 -19
-157 -46 -215 -60 -58 -14 -122 -30 -141 -35 -451 -115 -1185 -141 -1705 -61
-264 40 -456 88 -655 161 -130 48 -190 60 -190 38 0 -15 120 -143 175 -188
355 -289 751 -488 1140 -574 17 -4 50 -12 75 -17 392 -87 860 -94 1270 -20 30
6 78 14 105 19 57 10 221 47 280 64 231 63 708 257 909 370 50 28 121 68 158
88 37 21 80 47 97 59 16 12 31 21 34 21 11 0 199 118 286 179 53 38 128 90
166 116 89 62 322 237 355 267 25 23 79 66 129 103 36 26 115 91 166 136 39
35 76 67 125 109 34 29 191 174 265 244 33 32 87 78 120 104 33 26 69 56 81
67 137 133 551 457 716 559 34 22 106 67 158 101 121 78 186 117 230 137 19 9
89 42 155 73 226 107 394 171 545 205 146 34 191 42 315 55 215 23 364 17 549
-21 142 -29 159 -14 69 63 -31 26 -75 65 -98 87 -22 21 -56 49 -75 62 -19 13
-53 37 -75 53 -43 32 -67 47 -220 136 -190 111 -399 194 -665 265 -49 13 -125
28 -260 51 -73 13 -672 24 -683 12z"/>
    <path d="M9397 7384 c-4 -4 -44 -11 -89 -15 -83 -9 -149 -19 -223 -37 -22 -6
-56 -13 -75 -17 -247 -50 -650 -197 -905 -329 -294 -153 -445 -245 -740 -450
-81 -57 -426 -325 -445 -346 -3 -3 -30 -25 -60 -50 -30 -25 -60 -49 -66 -55
-6 -5 -40 -35 -74 -65 -35 -30 -87 -75 -115 -100 -28 -25 -73 -63 -100 -85
-27 -22 -63 -53 -80 -70 -17 -16 -55 -50 -85 -75 -30 -25 -66 -54 -79 -65 -14
-11 -41 -34 -60 -50 -20 -17 -52 -43 -73 -58 -20 -15 -42 -32 -50 -39 -23 -22
-110 -91 -158 -126 -119 -88 -377 -269 -390 -275 -8 -4 -55 -32 -105 -63 -350
-218 -611 -338 -996 -459 -168 -53 -160 -51 -366 -88 -192 -35 -193 -57 -3
-98 196 -43 298 -52 600 -52 352 0 459 10 765 72 42 9 212 51 320 81 180 48
394 135 665 268 272 133 499 268 824 489 55 38 145 98 200 135 56 37 132 90
170 117 66 49 86 55 86 27 0 -13 -131 -143 -255 -251 -37 -33 -77 -69 -89 -80
-24 -23 -189 -152 -223 -175 -12 -8 -77 -55 -145 -105 -109 -79 -283 -195
-294 -195 -2 0 -26 -15 -52 -33 -148 -104 -547 -297 -832 -404 -216 -81 -225
-84 -490 -155 -41 -10 -91 -24 -110 -29 -19 -5 -57 -14 -85 -19 -27 -5 -72
-14 -100 -20 -159 -33 -361 -62 -570 -81 -154 -15 -833 -15 -945 0 -47 6 -121
15 -165 20 -202 25 -357 62 -624 151 -156 52 -194 57 -199 30 -4 -26 130 -179
238 -270 36 -30 67 -58 70 -61 17 -20 176 -139 231 -173 36 -23 74 -47 85 -53
39 -25 321 -161 377 -181 139 -53 166 -62 232 -80 166 -46 282 -69 485 -94
120 -15 583 -15 715 0 166 18 332 43 410 61 173 41 238 59 368 103 355 118
560 211 962 438 65 37 203 124 260 164 33 24 112 78 175 121 63 43 126 87 140
97 261 199 405 315 580 468 14 12 45 39 70 59 58 48 118 102 200 181 37 36
107 101 155 145 49 44 152 143 230 220 200 199 347 338 455 430 52 44 104 89
116 100 11 11 42 38 69 60 27 22 62 52 79 66 17 14 69 52 116 84 47 32 103 73
125 90 53 43 151 108 217 145 96 54 384 199 439 221 201 80 349 120 559 151
100 15 535 15 630 0 41 -7 100 -16 130 -21 30 -5 79 -14 108 -20 53 -11 92 -3
92 18 0 14 -128 139 -189 185 -198 151 -284 207 -431 283 -255 132 -553 225
-875 275 -79 12 -727 22 -738 12z"/>
  </g>
</svg>
